<svg width="17" height="16" viewBox="0 0 17 16" fill="none" xmlns="http://www.w3.org/2000/svg">
<path d="M1 10.2193V5.78001C1 5.34951 1.336 5.00001 1.75 5.00001H4.4395C4.53875 4.99966 4.6369 4.97921 4.72803 4.93989C4.81916 4.90058 4.90139 4.84321 4.96975 4.77126L7.21975 2.23026C7.69225 1.73826 8.5 2.08701 8.5 2.78226V13.2178C8.5 13.9183 7.6825 14.264 7.213 13.7623L4.9705 11.2355C4.90194 11.1615 4.81889 11.1024 4.7265 11.0619C4.63411 11.0214 4.53438 11.0003 4.4335 11H1.75C1.336 11 1 10.6505 1 10.2193Z" stroke="black" stroke-width="2" stroke-linecap="round" stroke-linejoin="round"/>
<path d="M11.5 5.37497C12.4997 6.70847 12.4997 9.29147 11.5 10.625" stroke="black" stroke-width="2" stroke-linecap="round" stroke-linejoin="round"/>
<path d="M13.75 2.74997C16.741 5.60597 16.759 10.4127 13.75 13.25" stroke="black" stroke-width="2" stroke-linecap="round" stroke-linejoin="round"/>
</svg>
